<svg width="409" height="409" fill="none" xmlns="http://www.w3.org/2000/svg"><path fill-rule="evenodd" clip-rule="evenodd" d="M202.514 8.809c25.824-4.459 53.047-13.975 77.766-5.254 24.664 8.701 37.594 35.494 57.18 52.862 19.832 17.586 47.363 27.781 60.043 51.086 12.683 23.307 12.58 51.834 10.357 78.293-2.105 25.045-15.855 47.025-22.913 71.142-7.01 23.952-5.957 50.473-18.917 71.784-13.181 21.675-32.981 39.582-55.663 50.855-22.295 11.081-48.456 8.174-72.864 13.024-24.623 4.892-48.046 19.098-72.951 15.948-24.994-3.162-45.237-20.929-67.003-33.651-22.145-12.943-49.937-20.635-63.352-42.54-13.563-22.144-3.756-51.387-9.67-76.689-5.648-24.165-24.732-44.79-24.525-69.61.207-24.914 10.988-49.398 25.683-69.487 14.246-19.476 38.23-28.386 56.99-43.535 17.827-14.395 31.609-33.49 51.796-44.31 21.017-11.264 44.558-15.864 68.043-19.918z" fill="#92400E"/></svg>